<svg width="17" height="18" viewBox="0 0 17 18" fill="none" xmlns="http://www.w3.org/2000/svg">
<path fill-rule="evenodd" clip-rule="evenodd" d="M14.1245 13.8091C14.2779 13.7951 14.4082 13.7392 14.5156 13.6414C14.6229 13.5437 14.6766 13.4179 14.6766 13.2643C14.7533 12.4261 14.9373 11.1444 15.2287 9.41909C15.5201 7.69383 15.8345 6.01397 16.1719 4.37951C16.5092 2.74505 16.7776 1.63446 16.977 1.04773C16.9923 0.991851 17 0.935972 17 0.880093C17 0.754366 16.9463 0.628638 16.839 0.50291C16.5322 0.195576 16.2524 0.0349243 15.9993 0.0209546C15.7463 0.00698487 15.5814 0 15.5047 0C15.1673 0 14.8376 0.0419092 14.5156 0.125728C14.1168 0.237485 13.8024 0.349243 13.5724 0.461001C13.3577 0.54482 13.235 0.691502 13.2043 0.901048C13.097 1.59953 12.9091 2.85681 12.6407 4.67288C12.3723 6.48894 12.1615 8.078 12.0081 9.44005C11.8548 10.8021 11.7781 11.7555 11.7781 12.3003C11.7781 12.6636 11.8011 12.922 11.8471 13.0757C12.0311 13.369 12.3455 13.5646 12.7903 13.6624C13.235 13.7602 13.6031 13.8091 13.8945 13.8091H14.1245ZM5.16441 13.369C5.01872 13.5367 4.83852 13.6275 4.62382 13.6414C4.3171 13.6414 4.00654 13.603 3.69215 13.5262C3.37776 13.4494 3.1899 13.2922 3.12855 13.0547C3.08254 12.8452 3.05954 12.5448 3.05954 12.1537C3.05954 11.9721 3.07104 11.6473 3.09405 11.1793C3.11705 10.7113 3.20523 10.135 3.35859 9.45052C3.51195 8.76601 3.74966 8.27707 4.07172 7.9837C4.3171 7.8021 4.59314 7.60652 4.89986 7.39697C5.66667 6.922 6.34145 6.3702 6.92422 5.74156C7.30762 5.33644 7.49932 4.89639 7.49932 4.42142C7.49932 4.156 7.43798 3.88359 7.31529 3.60419C7.20794 3.33877 7.04691 3.15017 6.83221 3.03842C6.63284 2.92666 6.34145 2.87078 5.95805 2.87078H5.84303C4.46279 2.94063 3.61931 3.34575 3.31258 4.08615C3.20523 4.35157 3.15156 4.60303 3.15156 4.84051C3.15156 5.30151 3.32792 5.73458 3.68065 6.1397C3.788 6.26543 3.84168 6.39115 3.84168 6.51688C3.84168 6.55879 3.82251 6.63911 3.78417 6.75786C3.74583 6.8766 3.62697 6.97788 3.4276 7.0617C3.05954 7.18743 2.69914 7.25029 2.34641 7.25029C1.90167 7.25029 1.41475 7.10361 0.885656 6.81024C0.356563 6.51688 0.0613442 5.86729 0 4.86147V4.77765C0 4.07916 0.203203 3.35972 0.609608 2.61932C1.01601 1.87893 1.69463 1.25728 2.64547 0.754366C3.50429 0.307334 4.61615 0.0838184 5.98106 0.0838184H6.34912C7.59134 0.125728 8.64569 0.520373 9.51218 1.26775C10.3787 2.01513 10.8656 2.94761 10.9729 4.06519V4.19092C10.9729 5.05704 10.6662 5.7695 10.0528 6.32829C9.43933 6.88708 8.74921 7.36903 7.98241 7.77416C7.09292 8.23516 6.47948 8.7241 6.14208 9.24098C5.86604 9.77183 5.65133 10.3586 5.49797 11.0012C5.39062 11.4342 5.33694 11.8463 5.33694 12.2375C5.33694 12.4331 5.35228 12.6286 5.38295 12.8242V12.8661C5.38295 13.0338 5.3101 13.2014 5.16441 13.369ZM5.60149 17.4657C5.21042 17.8219 4.7465 18 4.20974 18C3.65765 18 3.18606 17.8219 2.79499 17.4657C2.40392 17.1094 2.20839 16.6868 2.20839 16.1979C2.20839 15.695 2.40392 15.2654 2.79499 14.9092C3.18606 14.553 3.65765 14.3749 4.20974 14.3749C4.7465 14.3749 5.21042 14.553 5.60149 14.9092C5.99256 15.2654 6.18809 15.695 6.18809 16.1979C6.18809 16.6868 5.99256 17.1094 5.60149 17.4657ZM14.32 17.4657C13.929 17.8219 13.4574 18 12.9053 18C12.3685 18 11.9046 17.8219 11.5135 17.4657C11.1225 17.1094 10.9269 16.6868 10.9269 16.1979C10.9269 15.695 11.1225 15.2654 11.5135 14.9092C11.9046 14.553 12.3685 14.3749 12.9053 14.3749C13.4574 14.3749 13.929 14.553 14.32 14.9092C14.7111 15.2654 14.9066 15.695 14.9066 16.1979C14.9066 16.6868 14.7111 17.1094 14.32 17.4657Z" fill="#7A7A7A"/>
</svg>
