<svg width="76" height="20" viewBox="0 0 76 20" fill="none" xmlns="http://www.w3.org/2000/svg">
<g clip-path="url(#clip0_6391_29318)">
<path d="M0.287194 19.6918C0.113459 19.6918 0 19.5809 0 19.4112V6.55477C0 6.38501 0.113459 6.27415 0.287194 6.27415H2.12027C2.29046 6.27415 2.40746 6.38501 2.40746 6.55477V7.92667H2.43583C3.03858 6.77649 4.24054 5.96582 6.07716 5.96582C7.16566 5.96582 8.19743 6.3573 8.88528 6.97396C9.0271 7.11254 9.05547 7.22686 8.94201 7.36544L7.88187 8.73734C7.76841 8.87592 7.62305 8.90363 7.48122 8.79277C6.8501 8.4013 6.16226 8.14839 5.36095 8.14839C3.26905 8.14839 2.40746 9.74548 2.40746 12.0701V19.4077C2.40746 19.5775 2.294 19.6883 2.12027 19.6883H0.287194V19.6918Z" fill="#0C1F55"/>
<path d="M9.43102 16.3867C9.11546 15.4617 8.97363 14.5367 8.97363 12.9708C8.97363 11.4291 9.11546 10.5041 9.43102 9.58261C10.1756 7.28571 12.1824 5.96924 14.8487 5.96924C17.515 5.96924 19.5218 7.28571 20.2664 9.58261C20.5819 10.5076 20.7238 11.4326 20.7238 12.9708C20.7238 14.5402 20.5819 15.4652 20.2664 16.3867C19.5218 18.6559 17.515 20.0001 14.8487 20.0001C12.1824 20.0001 10.1756 18.6559 9.43102 16.3867ZM17.944 15.7146C18.1745 14.9871 18.2596 14.2596 18.2596 12.9708C18.2596 11.682 18.1745 10.9822 17.944 10.2547C17.4866 8.91052 16.3662 8.15528 14.8487 8.15528C13.3276 8.15528 12.2108 8.91052 11.7534 10.2547C11.5229 10.9822 11.4378 11.682 11.4378 12.9708C11.4378 14.2596 11.5229 14.9871 11.7534 15.7146C12.2108 17.0588 13.3312 17.814 14.8487 17.814C16.3698 17.814 17.4866 17.0588 17.944 15.7146Z" fill="#0C1F55"/>
<path d="M23.4503 19.6918C23.2765 19.6918 23.1631 19.581 23.1631 19.4112V0.925148C23.1631 0.758857 23.2765 0.644531 23.4503 0.644531H25.2834C25.4535 0.644531 25.5705 0.755392 25.5705 0.925148V7.81585H25.5989C26.2584 6.75228 27.432 5.96586 29.4991 5.96586C31.8782 5.96586 33.5411 7.05714 34.2289 9.18775C34.6012 10.2513 34.7147 11.3184 34.7147 12.9709C34.7147 14.6511 34.6012 15.7147 34.2289 16.7817C33.5411 18.9123 31.8782 20.0036 29.4991 20.0036C27.4355 20.0036 26.2584 19.1895 25.5989 18.1259H25.5705V19.4147C25.5705 19.5844 25.4571 19.6953 25.2834 19.6953H23.4503V19.6918ZM31.9349 15.7701C32.1654 15.0703 32.2505 14.2007 32.2505 12.9674C32.2505 11.7618 32.1654 10.8957 31.9349 10.1647C31.4775 8.84824 30.4458 8.14843 28.9247 8.14843C27.4036 8.14843 26.3435 8.82053 25.8861 10.1647C25.6556 10.8368 25.5705 11.6198 25.5705 12.9674C25.5705 14.3116 25.6556 15.1257 25.8861 15.7701C26.3435 17.1143 27.4072 17.8141 28.9247 17.8141C30.4422 17.8141 31.4775 17.0866 31.9349 15.7701Z" fill="#0C1F55"/>
<path d="M37.3809 3.24976C37.2108 3.24976 37.0938 3.1389 37.0938 2.96915V0.925148C37.0938 0.758857 37.2072 0.644531 37.3809 0.644531H39.331C39.5012 0.644531 39.6182 0.755392 39.6182 0.925148V2.96915C39.6182 3.13544 39.5048 3.24976 39.331 3.24976H37.3809ZM37.4377 19.6918C37.2639 19.6918 37.1505 19.581 37.1505 19.4112V6.5548C37.1505 6.38505 37.2639 6.27419 37.4377 6.27419H39.2707C39.4409 6.27419 39.5579 6.38505 39.5579 6.5548V19.4112C39.5579 19.581 39.4445 19.6918 39.2707 19.6918H37.4377Z" fill="#0C1F55"/>
<path d="M51.7447 19.6918C51.5745 19.6918 51.4575 19.5809 51.4575 19.4112V11.5678C51.4575 9.40944 50.4541 8.15186 48.3906 8.15186C46.5256 8.15186 45.2385 9.44062 45.2385 11.4292V19.4112C45.2385 19.5809 45.1251 19.6918 44.9513 19.6918H43.1182C42.9445 19.6918 42.8311 19.5809 42.8311 19.4112V6.55477C42.8311 6.38501 42.9445 6.27415 43.1182 6.27415H44.9513C45.1215 6.27415 45.2385 6.38501 45.2385 6.55477V7.7881H45.2669C45.9264 6.75224 47.2453 5.96582 49.1068 5.96582C52.0886 5.96582 53.865 7.95439 53.865 11.0065V19.4112C53.865 19.5809 53.7515 19.6918 53.5778 19.6918H51.7447Z" fill="#0C1F55"/>
<path d="M68.8558 11.1276C63.5694 10.5248 59.9528 7.40336 58.1694 5.20693C56.3895 3.01396 57.5206 1.34065 57.439 1.09814C57.6234 1.63166 60.1869 8.65748 68.9126 11.1068C68.9551 11.1172 68.9906 11.1276 69.0331 11.1415C68.9764 11.1415 68.9161 11.1345 68.8558 11.1276Z" fill="#F05A28"/>
<path d="M68.2029 10.5976C68.171 10.5803 68.1426 10.563 68.1107 10.5456C61.2322 6.87338 60.4274 0.485016 60.3742 0C60.3955 0.218257 59.3141 2.26918 60.3565 4.29586C61.3989 6.32254 63.7177 9.06981 68.054 10.5491C68.1036 10.5664 68.1533 10.5803 68.2029 10.5976Z" fill="#F6921E"/>
<path d="M56.627 19.7954C60.325 15.0388 63.4452 19.2862 68.7246 17.0239C72.4014 15.4476 71.0292 13.7501 74.433 12.3989C75.0818 12.1426 76.0037 12.1772 76.0037 12.1772C76.0037 12.1772 75.8938 12.0421 75.4222 11.7511C74.9507 11.4636 74.6351 11.4393 74.6351 11.4393C74.6351 11.4393 74.5323 11.1621 73.9331 10.7776C73.3339 10.3931 72.2525 10.3688 71.3519 10.7949C70.7456 11.0825 69.962 11.4254 68.877 11.3111C63.0941 10.6979 57.9956 7.01179 55.1484 3.80029C55.152 4.37885 65.8172 17.4362 56.627 19.7954Z" fill="#EE4036"/>
</g>
<defs>
<clipPath id="clip0_6391_29318">
<rect width="76" height="20" fill="white"/>
</clipPath>
</defs>
</svg>
