<svg width="21" height="21" viewBox="0 0 21 21" fill="none" xmlns="http://www.w3.org/2000/svg">
<path fill-rule="evenodd" clip-rule="evenodd" d="M17.2208 13.4974L18.0008 13.1448C18.424 12.9407 18.8882 12.7053 19.3936 12.4385L19.9169 12.1827C20.4329 11.9111 20.6497 11.4041 20.5674 10.6617C20.5445 10.4547 20.4687 10.2238 20.3401 9.96872C20.2116 9.71372 20.008 9.63643 19.7294 9.73682L16.888 11.098C16.8845 10.6649 16.8877 10.1906 16.8974 9.67502C16.9622 5.03162 16.9325 2.15012 16.8084 1.03032C16.7773 0.750325 16.7365 0.583525 16.686 0.529625C16.5039 0.394725 16.0785 0.478325 15.4099 0.780525C14.7307 1.08762 14.3681 1.38572 14.3222 1.67492C14.2982 3.87132 14.2809 6.07762 14.2702 8.29362C14.2615 11.6334 14.2862 13.565 14.3442 14.0884C14.3941 14.5387 15.353 14.3417 17.2208 13.4974ZM10.127 16.7617C8.86799 17.2669 8.01959 17.0784 7.58189 16.1963C7.14419 15.3141 6.86329 14.3132 6.73919 13.1934C6.68249 12.6822 6.64829 12.1225 6.63659 11.5143C6.58149 9.60918 6.78759 7.89918 7.25489 6.38428C7.72219 4.86928 8.58189 3.82878 9.83419 3.26268L9.86609 3.24828C11.1278 2.76738 11.9792 2.95768 12.4201 3.81918C12.8611 4.68068 13.1417 5.65308 13.2617 6.73638C13.3211 7.27188 13.352 7.85228 13.3544 8.47748C13.4818 12.9445 12.406 15.7059 10.127 16.7617ZM10.0506 14.1121C10.6608 13.7852 10.9355 12.2422 10.8749 9.48328C10.8643 8.78508 10.828 8.15608 10.766 7.59618C10.7295 7.26758 10.6601 6.84198 10.5576 6.31958C10.4551 5.79708 10.23 5.57618 9.88229 5.65668C9.54269 5.81018 9.31099 6.33348 9.18709 7.22668C9.06319 8.11988 9.01289 9.12358 9.03609 10.2379C9.04799 10.9482 9.08489 11.5834 9.14699 12.1433C9.18479 12.4841 9.25789 12.9175 9.36639 13.4437C9.47489 13.9698 9.70289 14.1926 10.0506 14.1121ZM4.67671 19.168L3.89671 19.5206C2.02881 20.365 1.07001 20.562 1.02001 20.1116C0.962006 19.5883 0.937406 17.6566 0.946006 14.3168C0.956706 12.1008 0.974006 9.89458 0.998006 7.69808C1.04401 7.40888 1.40661 7.11078 2.08581 6.80378C2.75441 6.50148 3.17971 6.41788 3.36181 6.55288C3.41241 6.60668 3.45321 6.77358 3.48421 7.05348C3.60831 8.17328 3.63801 11.0549 3.57321 15.6982C3.56351 16.2138 3.56041 16.6882 3.56381 17.1212L6.40521 15.76C6.68381 15.6597 6.88741 15.737 7.01601 15.992C7.14461 16.247 7.22031 16.478 7.24331 16.6849C7.32561 17.4273 7.10871 17.9344 6.59281 18.206L6.06951 18.4617C5.56411 18.7285 5.09981 18.9639 4.67671 19.168Z" fill="#7A7A7A"/>
</svg>
