<svg width="14" height="18" viewBox="0 0 14 18" fill="none" xmlns="http://www.w3.org/2000/svg">
<path fill-rule="evenodd" clip-rule="evenodd" d="M0 13.3185C0 12.0769 0.0872402 10.2867 0.393569 9.78921C0.699899 9.2917 3.37046 6.82769 4.23394 4.8211C5.09743 2.81451 5.24635 -2.64843e-08 6.66448 0C8.08261 2.64843e-08 8.54711 1.07299 8.39665 3.27715C8.24619 5.48132 7.19249 6.8417 7.93351 7.37855C8.43701 7.74333 9.32516 7.14674 11.4795 7.14674C12.418 7.14674 14 7.14674 14 8.40487C14 9.66301 13.7229 9.51859 13.5964 10.3727C13.47 11.2267 13.8508 11.6408 13.4302 12.6044C13.0095 13.568 12.4917 13.6862 12.2509 14.3763C12.0102 15.0664 12.0945 15.8083 10.9684 16.8194C9.8422 17.8305 8.04477 18 6.66448 18C5.28419 18 1.18342 17.5376 0.618626 16.2318C0.0538331 14.9261 0 14.4502 0 13.3185Z" fill="#7A7A7A"/>
</svg>
