<svg width="14" height="18" viewBox="0 0 14 18" fill="none" xmlns="http://www.w3.org/2000/svg">
<path fill-rule="evenodd" clip-rule="evenodd" d="M0 4.68147C0 5.9231 0.0872402 7.71329 0.393569 8.21079C0.699899 8.7083 3.37046 11.1723 4.23394 13.1789C5.09743 15.1855 5.24635 18 6.66448 18C8.0826 18 8.54711 16.927 8.39665 14.7228C8.24619 12.5187 7.19249 11.1583 7.93351 10.6215C8.43701 10.2567 9.32516 10.8533 11.4795 10.8533C12.418 10.8533 14 10.8533 14 9.59513C14 8.33699 13.7229 8.48141 13.5964 7.62735C13.47 6.77329 13.8508 6.35923 13.4302 5.39561C13.0095 4.432 12.4917 4.31375 12.2509 3.62367C12.0102 2.93359 12.0945 2.19169 10.9684 1.1806C9.8422 0.169497 8.04477 7.26842e-08 6.66448 0C5.28419 -7.26842e-08 1.18342 0.462433 0.618626 1.76815C0.0538331 3.07387 0 3.54983 0 4.68147Z" fill="#7A7A7A"/>
</svg>
